<?xml version="1.0" encoding="UTF-8"?>
<svg version="1.1" xmlns="http://www.w3.org/2000/svg" width="3349" height="2303">
<path d="M0 0 C0.80577484 0.00432037 1.61154968 0.00864075 2.44174194 0.01309204 C14.346399 0.08780839 25.96153841 0.46519756 37.5625 3.375 C39.47869141 3.83326172 39.47869141 3.83326172 41.43359375 4.30078125 C64.74138316 10.47644978 88.23116803 23.73911396 106.00927734 39.96142578 C107.61110659 41.41923642 109.23528728 42.84885183 110.86328125 44.27734375 C135.07099415 65.759826 151.45758844 94.05432483 159.5625 125.375 C159.75779297 126.11234375 159.95308594 126.8496875 160.15429688 127.609375 C165.60089214 148.58885304 165.85905975 169.6641393 165.79463124 191.22829533 C165.78586674 194.91986586 165.78892593 198.611431 165.79043579 202.30300903 C165.79147656 208.67494659 165.78528544 215.0468427 165.77396011 221.41876984 C165.75759708 230.63111729 165.75248615 239.84344501 165.74998413 249.05580541 C165.74562383 264.00791805 165.73236027 278.96000867 165.71337891 293.91210938 C165.69497676 308.42317598 165.68084156 322.93423656 165.67236328 337.4453125 C165.67183783 338.34213069 165.67131239 339.23894889 165.67077102 340.16294339 C165.66816065 344.66272019 165.6656333 349.16249702 165.66314721 353.66227388 C165.64246663 390.89986479 165.6072869 428.13743067 165.5625 465.375 C168.58348723 463.94465181 171.60437409 462.51409175 174.62524414 461.08349609 C175.47283546 460.68218979 176.32042679 460.28088348 177.1937027 459.86741638 C181.98528524 457.59812636 186.77377173 455.3225701 191.55859375 453.0390625 C243.21252741 428.56415893 299.09498189 410.28444937 356.17480469 404.71044922 C359.80916722 404.35057504 363.43954989 403.96089274 367.0703125 403.56640625 C369.60930918 403.29365743 372.14837047 403.02150925 374.6875 402.75 C376.41033203 402.56497925 376.41033203 402.56497925 378.16796875 402.3762207 C397.04244468 400.41915858 415.78582541 400.1341564 434.75 400.125 C435.4483345 400.12426357 436.14666901 400.12352715 436.86616516 400.1227684 C458.28813202 400.10438549 479.51584325 400.62085002 500.82568359 402.96923828 C504.38774981 403.35602477 507.95016251 403.68498089 511.51953125 403.99609375 C574.1125705 409.74429377 635.83417826 429.98226121 692.5625 456.375 C693.62791016 456.8685498 694.69332031 457.36209961 695.79101562 457.87060547 C719.59408835 468.94674757 742.17050904 481.71937189 764.49462891 495.48779297 C767.06545145 497.06923959 769.64418721 498.6354556 772.23046875 500.19140625 C791.53806936 511.88708612 809.35968176 526.11635084 826.4921875 540.7734375 C829.23984045 543.11757701 832.05050228 545.37383316 834.875 547.625 C840.40698372 552.11872285 845.56944839 556.97359277 850.72973633 561.88378906 C853.99844016 564.99150748 857.295517 568.04063442 860.703125 570.99609375 C867.98718264 577.3194116 874.70437412 584.21973387 880.9609375 591.55859375 C882.54840261 593.3590115 884.21137594 595.02048977 885.9375 596.6875 C890.07217702 600.76717023 893.66415152 605.24631756 897.28515625 609.78125 C898.61859472 611.44498974 899.9645914 613.09796718 901.3125 614.75 C925.57773543 644.60986805 947.75363504 676.80457191 966.5625 710.375 C967.07458008 711.28701172 967.58666016 712.19902344 968.11425781 713.13867188 C985.73855837 744.7288176 1000.47159168 777.62016234 1011.9375 811.9375 C1012.18493958 812.67655579 1012.43237915 813.41561157 1012.68731689 814.17706299 C1021.97325615 842.04887145 1021.97325615 842.04887145 1024.08740234 856.39257812 C1024.95307458 861.8268289 1026.2312225 867.1778867 1027.41928101 872.54907227 C1045.31873194 954.08608762 1047.34180405 1040.23872126 1023.24267578 1179.55517578 C1022.71413947 1181.74634389 1022.21267067 1183.94404856 1021.72216797 1186.14404297 C1019.37935327 1196.60888671 1016.38213918 1206.72316465 1012.9375 1216.875 C1012.67516571 1217.65424835 1012.41283142 1218.4334967 1012.14254761 1219.23635864 C1007.44753816 1233.16018038 1002.35589175 1246.8663394 996.5625 1260.375 C996.09827637 1261.46135742 995.63405273 1262.54771484 995.15576172 1263.66699219 C972.89760562 1315.35906815 944.77829667 1362.96899588 911.5625 1408.375 C911.0557373 1409.07157715 910.54897461 1409.7681543 910.02685547 1410.48583984 C903.08932072 1420.00320679 895.75043755 1429.02602661 887.92822266 1437.83007812 C886.23944314 1439.7404458 884.59066961 1441.683808 882.9375 1443.625 C879.30546459 1447.78106041 875.35278129 1451.61507827 871.40625 1455.46875 C869.26671258 1457.60300554 867.27898461 1459.83006786 865.30859375 1462.12109375 C861.12982522 1466.94450196 856.64664939 1471.43739938 852.125 1475.9375 C850.91360352 1477.15469727 850.91360352 1477.15469727 849.67773438 1478.39648438 C845.38921053 1482.67809682 841.02648749 1486.79982077 836.43188477 1490.75073242 C833.45934729 1493.33350529 830.61426304 1496.04858251 827.75 1498.75 C821.88764157 1504.22965717 815.8304461 1509.3623057 809.5625 1514.375 C808.37091891 1515.35628222 807.18091404 1516.33948045 805.9921875 1517.32421875 C792.40170157 1528.5513661 778.54722488 1539.34562118 763.26953125 1548.1875 C759.29015337 1550.50062551 755.46582754 1553.02828022 751.625 1555.5625 C732.34540391 1568.15607096 712.13599105 1579.06260174 691.5625 1589.375 C690.5091748 1589.90367676 689.45584961 1590.43235352 688.37060547 1590.97705078 C635.77155073 1617.20670911 579.10654814 1634.9748383 520.75 1642.125 C519.92628906 1642.22623169 519.10257813 1642.32746338 518.25390625 1642.4317627 C512.3631366 1643.14542944 506.46653126 1643.78159057 500.5625 1644.375 C499.18315277 1644.51643936 499.18315277 1644.51643936 497.77593994 1644.66073608 C480.8084186 1646.35374716 463.89883885 1646.72038682 446.86376953 1646.69067383 C444.01041814 1646.68606317 441.15749528 1646.69291176 438.30419922 1646.71118164 C417.22090552 1646.84463411 396.51887171 1645.68939644 375.5625 1643.375 C374.09037048 1643.21443619 374.09037048 1643.21443619 372.58850098 1643.05062866 C367.2773802 1642.46132643 361.98050092 1641.79620671 356.6875 1641.0625 C355.92775879 1640.95861969 355.16801758 1640.85473938 354.38525391 1640.74771118 C339.91580953 1638.7503231 325.7205815 1635.99308327 311.5625 1632.375 C310.40911133 1632.08254395 309.25572266 1631.79008789 308.06738281 1631.48876953 C244.33526606 1615.11809119 185.07143095 1586.48982549 129.83984375 1551.09765625 C127.06146126 1549.31831317 124.26575723 1547.57650233 121.44140625 1545.87109375 C111.99740034 1540.14977654 103.24526389 1533.79132422 94.57470703 1526.95800781 C92.68173728 1525.46880424 90.77876753 1523.99373212 88.87109375 1522.5234375 C81.15324905 1516.55411696 73.70945867 1510.30934195 66.34326172 1503.91308594 C64.50997613 1502.32963389 62.66510206 1500.76073654 60.81640625 1499.1953125 C50.02199646 1490.04371501 50.02199646 1490.04371501 45.24867249 1485.06036377 C43.5195622 1483.3320828 41.71894074 1481.7477765 39.86108398 1480.15917969 C35.62825835 1476.47774714 31.62907596 1472.60299353 27.66015625 1468.640625 C26.57715492 1467.56261627 26.57715492 1467.56261627 25.47227478 1466.46282959 C23.95587926 1464.95146241 22.44080455 1463.43876896 20.92700195 1461.92480469 C18.63968923 1459.63967521 16.34449382 1457.36267139 14.04882812 1455.0859375 C6.41959847 1447.48610447 -0.8219467 1439.88312652 -7.4375 1431.375 C-8.56938177 1430.00661743 -9.70706291 1428.64300303 -10.8515625 1427.28515625 C-19.78173213 1416.60483222 -28.18914981 1405.58781175 -36.4375 1394.375 C-37.26266113 1393.2600415 -37.26266113 1393.2600415 -38.10449219 1392.12255859 C-59.35733635 1363.36985057 -77.92241954 1333.0728273 -94.4375 1301.375 C-95.22833984 1299.86123779 -95.22833984 1299.86123779 -96.03515625 1298.31689453 C-108.33103938 1274.64577868 -118.27120878 1250.11997557 -127.15722656 1224.99462891 C-127.97136755 1222.69286416 -128.7904734 1220.39284493 -129.61621094 1218.09521484 C-146.03667975 1172.21616862 -155.83330449 1124.01216708 -159.84277344 1075.48950195 C-160.10179797 1071.29879024 -160.10179797 1071.29879024 -161.4375 1067.375 C-161.5353099 1065.31866226 -161.56648408 1063.25906538 -161.5686025 1061.20040387 C-161.57062597 1060.55602799 -161.57264944 1059.91165211 -161.57473423 1059.24774969 C-161.58035083 1057.06336235 -161.57878074 1054.87903724 -161.5773077 1052.69464397 C-161.57986534 1051.11603016 -161.58285881 1049.537417 -161.58625141 1047.95880476 C-161.59435273 1043.58490406 -161.59615067 1039.21101929 -161.59697436 1034.83711198 C-161.59893736 1030.09194034 -161.60661032 1025.34677746 -161.61354691 1020.60161096 C-161.62639141 1011.1735301 -161.63375388 1001.74545198 -161.63944569 992.3173644 C-161.64649191 981.03045335 -161.65925058 969.74355056 -161.67199489 958.45664478 C-161.70388624 929.86931066 -161.72368998 901.28197107 -161.74128041 872.69462511 C-161.74604671 864.95185608 -161.75105566 857.20908723 -161.75608563 849.46631837 C-161.7866881 802.10708455 -161.81330167 754.74784954 -161.82977884 707.38860868 C-161.83366555 696.25551809 -161.83768567 685.12242755 -161.84176309 673.98933702 C-161.84227395 672.59182154 -161.84278269 671.19430605 -161.84328929 669.79679057 C-161.85954819 624.94519339 -161.89652175 580.09365023 -161.94744308 535.24207973 C-161.98401332 503.02210613 -162.01771125 470.80214387 -162.0299921 438.58215046 C-162.03024619 437.91902251 -162.03050029 437.25589455 -162.03076208 436.57267181 C-162.03603167 422.66642474 -162.03989167 408.76017752 -162.04208195 394.85392961 C-162.04311054 388.34076884 -162.04434686 381.82760812 -162.04570198 375.3144474 C-162.04596002 374.03259264 -162.04621806 372.75073788 -162.04648391 371.43003903 C-162.05117715 350.80870483 -162.07610546 330.18744262 -162.10845341 309.56613535 C-162.14050853 288.82871595 -162.1504526 268.09137751 -162.13802146 247.35393628 C-162.13129078 235.03843676 -162.14118501 222.72321558 -162.17514846 210.40775963 C-162.19620014 202.17187133 -162.19527703 193.93617089 -162.17681505 185.70027697 C-162.16692494 181.01341354 -162.16625983 176.32707919 -162.19247787 171.6402668 C-162.29003461 153.09456788 -162.25498891 135.93365083 -155.4375 118.375 C-155.0069251 117.13668448 -154.57635019 115.89836896 -154.13272756 114.62252873 C-142.65209252 81.79673141 -119.62262266 51.69666483 -92.4375 30.375 C-91.82003906 29.8903125 -91.20257813 29.405625 -90.56640625 28.90625 C-86.51075316 25.87180452 -82.16078287 23.46974461 -77.6875 21.10546875 C-75.32816768 19.84923772 -73.00626681 18.56488342 -70.6875 17.23828125 C-63.02552133 12.92107409 -55.33140849 9.34070916 -47 6.5 C-46.2157666 6.22615479 -45.4315332 5.95230957 -44.62353516 5.67016602 C-30.08232949 0.96273897 -15.182525 -0.15548476 0 0 Z M430.87548828 733.49951172 C383.11233841 735.98742417 340.38198667 751.9728092 300.59570312 778.04394531 C298.80589882 779.21565677 297.00531816 780.3708721 295.203125 781.5234375 C283.76302409 788.93831772 273.28864553 797.44531876 263.359375 806.765625 C260.80390638 809.14977729 258.19549192 811.45242106 255.5625 813.75 C245.02698153 823.24039504 236.09848025 834.09486935 227.5625 845.375 C226.90797852 846.22819824 226.90797852 846.22819824 226.24023438 847.09863281 C201.41442997 879.51929442 183.18574875 915.92910055 172.5625 955.375 C172.35544434 956.12410645 172.14838867 956.87321289 171.93505859 957.64501953 C153.53860808 1025.57395182 167.39110377 1104.01773824 201.30078125 1164.47412109 C209.91223156 1179.23483981 219.68098439 1193.202639 230.5625 1206.375 C231.28953125 1207.28765625 232.0165625 1208.2003125 232.765625 1209.140625 C238.79736066 1216.53803666 245.33374897 1223.35711109 252.0625 1230.125 C252.92834717 1231.00003174 253.79419434 1231.87506348 254.6862793 1232.77661133 C260.6689005 1238.73108962 266.94464547 1244.14029002 273.5625 1249.375 C274.5230127 1250.1469873 274.5230127 1250.1469873 275.50292969 1250.93457031 C281.14415502 1255.4548467 286.72198773 1259.72099364 293.15625 1263.0546875 C296.21129271 1264.7309934 299.09219419 1266.64734487 302 1268.5625 C328.74512663 1285.98746616 358.26173475 1298.85151355 389.5625 1305.375 C390.644104 1305.60243896 390.644104 1305.60243896 391.74755859 1305.83447266 C433.27549902 1314.28035143 477.34073025 1311.42030309 517.5625 1298.375 C518.43696777 1298.09172852 519.31143555 1297.80845703 520.21240234 1297.51660156 C543.07497941 1289.96113973 564.22810463 1279.1871833 584.5625 1266.375 C585.64917969 1265.70597656 586.73585938 1265.03695312 587.85546875 1264.34765625 C615.7007868 1247.02778988 641.85455651 1223.36584977 660.5625 1196.375 C661.19639648 1195.46202148 661.83029297 1194.54904297 662.48339844 1193.60839844 C708.07103253 1127.46377473 728.58246779 1049.98902974 714.49609375 970.078125 C704.07752281 915.23286206 678.48243687 862.69034317 639.5625 822.375 C638.51497559 821.28662842 638.51497559 821.28662842 637.44628906 820.17626953 C627.69496824 810.09770936 617.89487429 800.6464943 606.5625 792.375 C605.68078125 791.69824219 604.7990625 791.02148438 603.890625 790.32421875 C596.25105304 784.54823934 588.07778406 779.65946167 579.86474609 774.75537109 C577.68892542 773.45080163 575.52511947 772.12835133 573.36328125 770.80078125 C530.780947 744.87383826 480.79634498 731.18626104 430.87548828 733.49951172 Z " fill="#CC10DB" transform="translate(178.4375,271.625)"/>
<path d="M0 0 C0.99821777 0.23074219 1.99643555 0.46148437 3.02490234 0.69921875 C30.79326219 7.42231884 56.95854403 19.52955528 78 39 C78.56960449 39.52045898 79.13920898 40.04091797 79.72607422 40.57714844 C107.02555422 65.77550984 121.97954192 100.35355141 127.60595703 136.70385742 C127.86715141 138.22587299 128.17522328 139.74062868 128.53076172 141.2434082 C130.22809387 148.45594229 130.30490212 155.56651796 130.26074219 162.93188477 C130.25000101 165.06229998 130.26070267 167.19187556 130.2734375 169.32226562 C130.28159168 176.48984398 129.92176141 183.08704246 128 190 C127.63341294 191.63511852 127.27438341 193.27194488 126.921875 194.91015625 C120.19632353 224.86050906 107.09792829 251.21904441 85.61816406 273.33056641 C83.93680547 275.06519677 82.27755251 276.81950404 80.6171875 278.57421875 C49.04858071 311.51633997 5.73009518 323.57843578 -38.37255859 328.17675781 C-65.86589268 331.11021118 -88.16010887 340.44974232 -108 360 C-108.64582031 360.63292969 -109.29164063 361.26585937 -109.95703125 361.91796875 C-132.42846597 385.75768756 -142.12648462 420.32275298 -142.15821838 452.23136902 C-142.16562535 453.84417778 -142.16562535 453.84417778 -142.17318195 455.48956853 C-142.18843776 459.06229881 -142.19688498 462.63501129 -142.20532227 466.20776367 C-142.21491018 468.78078363 -142.22492078 471.35380204 -142.23532104 473.92681885 C-142.25698652 479.45092728 -142.27516681 484.97503817 -142.29092598 490.49916649 C-142.31371573 498.48595884 -142.34184548 506.47272551 -142.37124526 514.45949594 C-142.41881015 527.42000739 -142.46210411 540.3805294 -142.50268555 553.34106445 C-142.54209718 565.92505717 -142.58353682 578.50904055 -142.62768555 591.09301758 C-142.63177196 592.25809141 -142.63177196 592.25809141 -142.63594092 593.44670209 C-142.64962133 597.34356782 -142.66334142 601.24043342 -142.67708123 605.13729894 C-142.7908714 637.42484661 -142.89771902 669.71241375 -143 702 C-141.59976089 701.99102692 -141.59976089 701.99102692 -140.17123413 701.98187256 C-138.93185089 701.97721985 -137.69246765 701.97256714 -136.41552734 701.96777344 C-135.19328461 701.96179138 -133.97104187 701.95580933 -132.71176147 701.949646 C-126.97415303 702.02748278 -121.32242607 702.60217581 -115.625 703.25 C-114.41602051 703.38567383 -113.20704102 703.52134766 -111.96142578 703.66113281 C-70.16337134 708.51283938 -27.92131534 718.41876424 5 746 C6.03253906 746.82951172 6.03253906 746.82951172 7.0859375 747.67578125 C12.8754983 752.46990373 17.38019837 758.0986255 22 764 C23.22589844 765.50240234 23.22589844 765.50240234 24.4765625 767.03515625 C53.65067617 803.157643 62.07644879 851.9905337 57.375 897.3125 C52.90308406 933.44369426 37.97375428 964.04316856 14 991 C13.01966797 992.10794922 13.01966797 992.10794922 12.01953125 993.23828125 C-19.10276547 1026.35134322 -71.5742576 1035.30385576 -114.5625 1039.75 C-116.39880981 1039.94178833 -116.39880981 1039.94178833 -118.2722168 1040.13745117 C-119.46242432 1040.25193604 -120.65263184 1040.3664209 -121.87890625 1040.484375 C-122.9160376 1040.58459961 -123.95316895 1040.68482422 -125.02172852 1040.78808594 C-128.77642969 1040.98809088 -132.48933331 1041.02061954 -136.24864197 1041.01324463 C-137.51211928 1041.01133244 -138.7755966 1041.00942024 -140.07736111 1041.0074501 C-141.52406736 1041.0037623 -141.52406736 1041.0037623 -143 1041 C-142.99886084 1042.13394506 -142.99772168 1043.26789013 -142.996548 1044.43619716 C-142.94646974 1094.48351003 -142.90019657 1144.53082455 -142.87297058 1194.57815552 C-142.87255641 1195.33753933 -142.87214224 1196.09692313 -142.87171552 1196.87931857 C-142.86273383 1213.38840183 -142.85442371 1229.89748536 -142.84680401 1246.40656929 C-142.84306247 1254.50428193 -142.83917274 1262.6019945 -142.83520508 1270.69970703 C-142.8348128 1271.50546596 -142.83442052 1272.31122489 -142.83401636 1273.14140076 C-142.82126466 1299.19173949 -142.79875511 1325.24205851 -142.77110834 1351.29238533 C-142.74271612 1378.09420783 -142.72432188 1404.89601946 -142.71825503 1431.69785675 C-142.71739074 1435.49574654 -142.71641384 1439.29363629 -142.71536827 1443.09152603 C-142.715166 1443.83890121 -142.71496373 1444.58627639 -142.71475533 1445.3562993 C-142.7112297 1457.31841247 -142.69736883 1469.28049172 -142.6795039 1481.24259113 C-142.66170722 1493.31006093 -142.65512941 1505.37749758 -142.65949587 1517.44498001 C-142.66155688 1523.96653181 -142.65864319 1530.4880047 -142.64238358 1537.00954056 C-142.56479174 1569.75258577 -142.77653967 1602.30472807 -148.6875 1634.625 C-148.81316345 1635.32916046 -148.9388269 1636.03332092 -149.06829834 1636.75881958 C-161.48313227 1706.10032576 -189.51146373 1775.97119405 -234 1831 C-235.05345886 1832.31244105 -236.10684199 1833.62494289 -237.16015625 1834.9375 C-255.12124685 1857.24953085 -274.10662611 1879.8541895 -296.078125 1898.3515625 C-298.45592401 1900.39105677 -300.7150644 1902.54452786 -303 1904.6875 C-308.72205559 1909.91026265 -314.82954865 1914.49930471 -321.06640625 1919.0859375 C-324.37945302 1921.52262996 -327.59827529 1924.05891113 -330.8125 1926.625 C-348.11100705 1939.94807376 -366.83260088 1951.59376982 -386 1962 C-386.82032715 1962.45391113 -387.6406543 1962.90782227 -388.48583984 1963.37548828 C-432.20453648 1987.53244279 -486.2263828 2008.83382418 -536.71875 2009.23828125 C-537.72653503 2009.2480751 -538.73432007 2009.25786896 -539.77264404 2009.26795959 C-581.57339371 2009.59092921 -581.57339371 2009.59092921 -600 2005 C-600.89879883 2004.78569336 -601.79759766 2004.57138672 -602.72363281 2004.35058594 C-639.96210147 1995.27544299 -675.39998499 1974.68045289 -700 1945 C-700.75796875 1944.12988281 -701.5159375 1943.25976562 -702.296875 1942.36328125 C-726.02544721 1914.76592009 -738.79501295 1880.46395601 -740 1844 C-740.05994141 1842.43765625 -740.05994141 1842.43765625 -740.12109375 1840.84375 C-740.97121683 1797.23743686 -724.48288811 1756.29153632 -694.62890625 1724.68359375 C-691.84137933 1721.83807964 -688.98537956 1719.17754598 -685.9296875 1716.625 C-684.61192752 1715.51530738 -683.32602117 1714.36695106 -682.0703125 1713.1875 C-655.99169916 1688.78185431 -621.91393612 1676.05167474 -586.68258667 1673.77923584 C-559.79275005 1671.98195707 -535.01812849 1667.07915289 -514 1649 C-513.49919922 1648.56929199 -512.99839844 1648.13858398 -512.48242188 1647.69482422 C-492.30661563 1630.17671961 -479.53750791 1610.46253213 -472.125 1584.8125 C-471.93381592 1584.16176514 -471.74263184 1583.51103027 -471.5456543 1582.84057617 C-467.64948075 1568.29049912 -467.70559202 1553.30869685 -467.7215271 1538.37268066 C-467.71651549 1536.21809827 -467.71063718 1534.06351776 -467.70397437 1531.90893984 C-467.68826508 1526.02766287 -467.68474871 1520.1464338 -467.68332577 1514.26513839 C-467.67961579 1507.90815497 -467.66445241 1501.55119734 -467.65071106 1495.19422913 C-467.62848445 1484.19336708 -467.61337437 1473.19251477 -467.60334396 1462.19163513 C-467.59280031 1450.66091439 -467.57814485 1439.13021079 -467.55806351 1427.59950256 C-467.55681464 1426.88108842 -467.55556577 1426.16267427 -467.55427906 1425.42249 C-467.54791483 1421.77364993 -467.54147776 1418.12480999 -467.53501268 1414.47597009 C-467.48941652 1388.66807103 -467.45294045 1362.8601664 -467.421875 1337.05224609 C-467.39168465 1311.98876124 -467.35733389 1286.92528769 -467.31738281 1261.86181641 C-467.31615181 1261.08850581 -467.31492081 1260.31519521 -467.3136525 1259.51845095 C-467.30128506 1251.75216019 -467.28883339 1243.98586955 -467.27632002 1236.21957902 C-467.25083344 1220.4004151 -467.22590888 1204.58125031 -467.20132446 1188.76208496 C-467.20019355 1188.03483285 -467.19906264 1187.30758074 -467.19789747 1186.55829068 C-467.12251203 1138.0388735 -467.0602667 1089.51943807 -467 1041 C-467.83293988 1041.00251613 -468.66587976 1041.00503225 -469.52406025 1041.00762463 C-472.65346434 1041.01587759 -475.78286283 1041.02186871 -478.91227436 1041.02639294 C-480.91712884 1041.02995961 -482.92197829 1041.03606883 -484.92682648 1041.0422287 C-493.91871845 1041.05310289 -502.74327886 1040.79077419 -511.6875 1039.8125 C-513.59982422 1039.61285645 -513.59982422 1039.61285645 -515.55078125 1039.40917969 C-551.0567612 1035.4650512 -587.34948329 1026.84020342 -615 1003 C-615.84304687 1002.27554688 -616.68609375 1001.55109375 -617.5546875 1000.8046875 C-649.18756484 971.19811547 -666.33264129 921.55400859 -668.12231445 879.09838867 C-669.30941875 832.37812386 -655.90500133 789.80128337 -623.4375 755.53515625 C-622.633125 754.69855469 -621.82875 753.86195313 -621 753 C-620.4225 752.35933594 -619.845 751.71867187 -619.25 751.05859375 C-586.13709926 715.37944321 -523.48284101 704.50293202 -477 702 C-475.24918208 701.98267131 -473.49820773 701.97760967 -471.74731445 701.98364258 C-470.85567093 701.98600418 -469.9640274 701.98836578 -469.04536438 701.99079895 C-468.37039413 701.9938353 -467.69542389 701.99687164 -467 702 C-467.00170874 701.12634537 -467.00170874 701.12634537 -467.003452 700.23504114 C-467.07086171 665.57033114 -467.12219782 630.90563442 -467.15319599 596.24087259 C-467.15694727 592.061135 -467.16083031 587.88139755 -467.16479492 583.70166016 C-467.16558185 582.86969134 -467.16636878 582.03772252 -467.16717956 581.18054253 C-467.18016672 567.78086411 -467.20378284 554.38122505 -467.23145839 540.98156983 C-467.25970029 527.19074642 -467.27621552 513.39994336 -467.28226548 499.60909224 C-467.2863434 491.12718229 -467.29913133 482.64538366 -467.3237494 474.16350806 C-467.33983975 468.31510445 -467.34434897 462.46675678 -467.34050413 456.61833274 C-467.33861791 453.26445909 -467.34285136 449.91092894 -467.35761642 446.55706596 C-467.46307911 421.32410906 -465.71419436 396.13386651 -461.375 371.25 C-461.18991882 370.16390945 -461.18991882 370.16390945 -461.00109863 369.05587769 C-450.56078892 308.27393403 -427.66342316 245.76707031 -392.3125 194.90869141 C-390.34921326 192.05359919 -388.44794183 189.15831327 -386.53955078 186.26635742 C-374.89594852 168.65323944 -362.48245797 151.92858371 -348.16015625 136.37109375 C-346.31830256 134.34938455 -344.52844613 132.29702732 -342.7421875 130.2265625 C-339.01478819 125.95737559 -335.08040369 121.93215641 -331.0625 117.9375 C-330.39798828 117.26912109 -329.73347656 116.60074219 -329.04882812 115.91210938 C-325.1035271 111.9744617 -321.04852655 108.2243034 -316.82836914 104.58325195 C-314.40080586 102.4811358 -312.04614433 100.30390316 -309.6875 98.125 C-304.28063217 93.20630354 -298.72831062 88.53914234 -293 84 C-292.15550293 83.32275879 -292.15550293 83.32275879 -291.29394531 82.63183594 C-271.54845805 66.85454439 -250.21552773 53.02315871 -228 41 C-227.1042627 40.50838379 -226.20852539 40.01676758 -225.28564453 39.51025391 C-181.88539388 15.7646718 -135.03567511 2.73295892 -86 -3 C-85.11449463 -3.1038501 -84.22898926 -3.2077002 -83.31665039 -3.31469727 C-56.25843296 -6.01395915 -26.54743803 -6.14511695 0 0 Z " fill="#8336EF" transform="translate(3202,282)"/>
<path d="M0 0 C0.72509766 0.16628906 1.45019531 0.33257812 2.19726562 0.50390625 C14.10647399 3.28787704 25.02454755 7.6492036 36 13 C37.7634375 13.85078125 37.7634375 13.85078125 39.5625 14.71875 C79.57529683 35.10988685 107.28303327 77.49133209 121 119 C122.02204735 122.33466754 122.9475846 125.6838293 123.8125 129.0625 C123.99514404 129.76729492 124.17778809 130.47208984 124.3659668 131.19824219 C128.02790475 146.52256454 129.44872943 161.88090175 129.37917423 177.59306622 C129.38250528 179.3780578 129.38714876 181.16304731 129.39296427 182.94803253 C129.40507898 187.81105441 129.3988213 192.67389818 129.38933506 197.53691931 C129.38233975 202.84348341 129.39287827 208.15001881 129.40113491 213.45657712 C129.41321267 222.74314846 129.4143018 232.02966967 129.40807533 241.31624603 C129.39888 255.12580069 129.406949 268.93530805 129.41857243 282.74485897 C129.43768612 305.98256625 129.44322531 329.22025403 129.44125557 352.45796776 C129.4393733 375.4707021 129.44459457 398.48341892 129.45893669 421.49614906 C129.45938078 422.21197212 129.45982486 422.92779518 129.4602824 423.66530985 C129.46480414 430.93376226 129.46948246 438.20221457 129.47426576 445.47066682 C129.48448118 460.99398277 129.49373074 476.51729925 129.50257015 492.04061604 C129.50299273 492.78065858 129.5034153 493.52070113 129.50385069 494.2831692 C129.52388758 529.47820484 129.53439806 564.67324198 129.54312245 599.86828199 C129.54370132 602.20249589 129.54428359 604.53670979 129.54486683 606.87092369 C129.54681371 614.66706704 129.54874583 622.46321039 129.55066922 630.25935375 C129.55095536 631.41888013 129.55095536 631.41888013 129.55124727 632.6018313 C129.55221067 636.50873476 129.55317047 640.41563823 129.55412453 644.3225417 C129.56272463 679.49981042 129.5735998 714.67707825 129.58585708 749.85434588 C129.58666971 752.18859249 129.5874782 754.52283911 129.58828614 756.85708573 C129.60048474 792.02798 129.6147873 827.1988723 129.63422298 862.36976337 C129.63463049 863.10921815 129.635038 863.84867293 129.63545785 864.61053543 C129.64360403 879.38526539 129.6519641 894.1599952 129.66086475 908.93472472 C129.66567309 916.92491581 129.67034924 924.91510698 129.67487907 932.90529823 C129.67528501 933.62008993 129.67569095 934.33488162 129.67610919 935.07133367 C129.6894899 958.78851917 129.694424 982.50569862 129.69517689 1006.2228876 C129.69593368 1029.32614531 129.70335894 1052.42939052 129.71770663 1075.53264423 C129.72597954 1089.25758933 129.728577 1102.98250903 129.72315645 1116.70745568 C129.72007052 1125.87711149 129.72419058 1135.04674584 129.73412842 1144.21639672 C129.73957459 1149.43940264 129.74188044 1154.66235708 129.73531515 1159.88536289 C129.72938825 1164.644287 129.73276347 1169.40311367 129.74330463 1174.16202897 C129.74548885 1175.86562058 129.74439 1177.5692207 129.73944724 1179.27280653 C129.64257511 1215.31696609 138.25898499 1249.58703078 164 1276 C164.804375 1276.845625 165.60875 1277.69125 166.4375 1278.5625 C167.283125 1279.366875 168.12875 1280.17125 169 1281 C169.64710938 1281.65355469 170.29421875 1282.30710937 170.9609375 1282.98046875 C191.11529354 1302.43176586 217.23238642 1307.81605529 244.20153809 1309.17672729 C280.7588885 1311.02597223 312.78318497 1321.59142428 342 1344 C342.7940625 1344.58910156 343.588125 1345.17820312 344.40625 1345.78515625 C379.66527252 1372.7445712 399.50169804 1412.78401987 406 1456 C410.52397887 1497.2706672 399.49259368 1539.78304231 373.7109375 1572.65234375 C372.80991632 1573.77034951 371.90628458 1574.88625662 371 1576 C370.55301758 1576.5583252 370.10603516 1577.11665039 369.64550781 1577.69189453 C355.6015303 1595.15839644 339.36980872 1609.65256437 320 1621 C319.1322998 1621.51191895 319.1322998 1621.51191895 318.24707031 1622.03417969 C305.69398813 1629.26968486 291.90799594 1633.19972869 278 1637 C276.5426368 1637.40307121 276.5426368 1637.40307121 275.05583191 1637.81428528 C266.64781857 1639.95787873 258.74671853 1640.43862714 250.09375 1640.3984375 C248.6796453 1640.40046993 247.26554164 1640.40339091 245.85144043 1640.40713501 C242.89646361 1640.41152681 239.94176095 1640.40524579 236.98681641 1640.39111328 C233.29500104 1640.3742717 229.60384617 1640.38402764 225.91205502 1640.40141201 C200.29491744 1640.50409069 175.14687624 1638.66114253 149.96655273 1633.68530273 C147.40454527 1633.1810134 144.83865877 1632.70182344 142.27148438 1632.22460938 C77.85761439 1619.96320279 18.29685354 1585.03822876 -32 1544 C-32.89074219 1543.28328125 -33.78148437 1542.5665625 -34.69921875 1541.828125 C-35.62347656 1541.08046875 -36.54773437 1540.3328125 -37.5 1539.5625 C-38.3146875 1538.90378906 -39.129375 1538.24507812 -39.96875 1537.56640625 C-48.78789021 1530.09968573 -57.05764426 1522.12874761 -65.22290039 1513.96240234 C-67.05791722 1512.12957731 -68.9008125 1510.3049299 -70.74414062 1508.48046875 C-77.63324199 1501.62374103 -83.95798062 1494.62146187 -90 1487 C-90.99447318 1485.83562682 -91.9971642 1484.678168 -93.01171875 1483.53125 C-112.06673543 1461.98442345 -128.81025623 1437.55201989 -142 1412 C-142.58217285 1410.88189941 -143.1643457 1409.76379883 -143.76416016 1408.61181641 C-167.70854868 1362.50171291 -185.48397181 1314.37239455 -194.3125 1263.0625 C-194.43010681 1262.39581299 -194.54771362 1261.72912598 -194.66888428 1261.04223633 C-199.85451611 1231.20243369 -200.44936657 1201.23893209 -200.39780539 1171.04354953 C-200.3919125 1165.6123765 -200.40360117 1160.1812332 -200.41286707 1154.75006872 C-200.42668066 1145.26466775 -200.42954188 1135.77931445 -200.42490768 1126.29390526 C-200.41803443 1112.18852424 -200.42838495 1098.08319095 -200.44186524 1083.97781657 C-200.46601152 1058.04841002 -200.47141131 1032.11902285 -200.46955473 1006.18960665 C-200.46929506 1002.52560129 -200.4690564 998.86159594 -200.46883965 995.19759059 C-200.46879561 994.46969579 -200.46875157 993.74180098 -200.46870619 992.99184876 C-200.46784031 976.81270213 -200.47264552 960.63355863 -200.47852156 944.45441323 C-200.47986253 940.75287762 -200.48116247 937.051342 -200.4824672 933.34980639 C-200.48299174 931.86409451 -200.48351633 930.37838262 -200.48404097 928.89267074 C-200.48430075 928.15619949 -200.48456053 927.41972824 -200.48482819 926.66093967 C-200.48535438 925.17117675 -200.48588206 923.68141383 -200.4864112 922.1916509 C-200.50139017 879.96826433 -200.51018512 837.74488026 -200.50545502 795.52149105 C-200.50536915 794.74095968 -200.50528329 793.96042832 -200.50519482 793.15624449 C-200.50423554 784.45374559 -200.50319733 775.75124671 -200.50213593 767.04874783 C-200.50184642 764.66716691 -200.50155693 762.28558599 -200.50126753 759.90400507 C-200.50107353 758.31497865 -200.50087803 756.72595223 -200.50068104 755.13692581 C-200.49446168 704.85990038 -200.5093475 654.58292307 -200.54199219 604.3059082 C-200.55021607 591.62827789 -200.5583663 578.95064755 -200.56609344 566.27301693 C-200.56656964 565.49230125 -200.56704584 564.71158556 -200.56753646 563.90721183 C-200.5821294 539.83352739 -200.5905688 515.75984695 -200.592659 491.68615818 C-200.59275847 490.55199945 -200.59275847 490.55199945 -200.59285996 489.39492841 C-200.59425417 472.79475397 -200.59414258 456.19457982 -200.59264987 439.59440539 C-200.59212781 433.65456824 -200.59171062 427.71473108 -200.5913417 421.77489392 C-200.59124848 420.29737102 -200.59114934 418.81984813 -200.59104425 417.34232524 C-200.58942203 393.84142178 -200.60221344 370.34055428 -200.62220203 346.83966013 C-200.64277327 322.51106967 -200.64485772 298.182542 -200.62604648 273.85394906 C-200.61573195 259.84152551 -200.61916102 245.82926609 -200.64257733 231.81685743 C-200.65684465 222.44710293 -200.65280083 213.07746945 -200.63413157 203.70772305 C-200.62401548 198.37632432 -200.62155754 193.04524427 -200.64145225 187.71386587 C-200.78459243 146.61282787 -200.78459243 146.61282787 -195 127 C-194.64165055 125.75787591 -194.64165055 125.75787591 -194.27606171 124.49065839 C-187.14182269 100.06943344 -175.22682084 77.58000836 -159 58 C-158.51354004 57.41202637 -158.02708008 56.82405273 -157.52587891 56.21826172 C-129.76051604 22.86279403 -93.86191604 2.37177344 -50.4375 -2.80151367 C-33.74509485 -4.16078104 -16.31534668 -3.93551572 0 0 Z " fill="#AB21E4" transform="translate(1533,281)"/>
<path d="M0 0 C1.48769242 -0.0039032 2.97538375 -0.00824109 4.46307373 -0.01298523 C7.56249624 -0.0203878 10.66180474 -0.02020063 13.76123047 -0.01489258 C17.68175513 -0.00911473 21.60180475 -0.02601736 25.52225113 -0.04923725 C28.59056201 -0.06416 31.65876343 -0.06482137 34.72710419 -0.06172752 C36.17001025 -0.06223178 37.61292398 -0.06729537 39.05579376 -0.07753944 C76.93482752 -0.31350089 113.23447541 15.73192967 140.2421875 42.1484375 C154.54382505 57.3691458 165.24025796 75.69150833 172.234375 95.30078125 C172.61335938 96.35523438 172.99234375 97.4096875 173.3828125 98.49609375 C178.40210842 113.55398151 179.68367175 128.77571964 179.61189842 144.53843021 C179.61503649 146.30915269 179.61948662 148.07987322 179.62511152 149.85058954 C179.63670833 154.68331925 179.62984921 159.51586724 179.61977766 164.34859372 C179.61212841 169.61884035 179.62196274 174.88906034 179.62950766 180.15930313 C179.64031823 189.38521501 179.64002912 198.61107417 179.63236618 207.83698845 C179.62100207 221.55637085 179.6268286 235.27570893 179.6359911 248.99509105 C179.65086334 272.08037465 179.65143168 295.16563224 179.64326096 318.25091743 C179.64301257 318.95304198 179.64276418 319.65516653 179.64250827 320.37856758 C179.64225948 321.08182396 179.64201069 321.78508035 179.64175436 322.50964753 C179.63417823 343.95373478 179.6322337 365.39781348 179.6358223 386.84190178 C179.63605474 388.27912037 179.6362862 389.71633896 179.63651671 391.15355754 C179.63744814 396.92945157 179.63840415 402.7053456 179.639396 408.48123962 C179.64214671 424.62613149 179.64385874 440.7710234 179.64475441 456.91591549 C179.64479535 457.65104949 179.64483628 458.38618348 179.64487846 459.14359427 C179.64610588 482.56011712 179.64272777 505.97663699 179.63620567 529.39315891 C179.63599493 530.15239945 179.63578418 530.91164 179.63556705 531.69388783 C179.63213239 544.0226788 179.62847392 556.35146971 179.62479652 568.68026062 C179.61022729 617.57713186 179.61090493 666.47397847 179.62548828 715.37084961 C179.62915198 727.6946821 179.63278519 740.01851459 179.63620567 752.34234715 C179.63641702 753.10121537 179.63662836 753.8600836 179.63684611 754.64194783 C179.6433165 778.03544566 179.64605715 801.42894145 179.64475441 824.82244015 C179.64471366 825.55701763 179.6446729 826.29159511 179.64463092 827.04843252 C179.6436934 843.17491427 179.64179234 859.3013958 179.6390229 875.42787733 C179.63803552 881.19822462 179.63709627 886.96857191 179.63617077 892.73891921 C179.6359386 894.17437203 179.63570241 895.60982485 179.63546218 897.04527767 C179.63188427 918.48320184 179.63492514 939.92111638 179.64250827 961.35903935 C179.64275666 962.06124669 179.64300504 962.76345403 179.64326096 963.48694038 C179.643509 964.18784681 179.64375705 964.88875323 179.64401261 965.61089924 C179.65229424 989.27101408 179.64922367 1012.93109787 179.63341872 1036.59121055 C179.62461018 1050.22728616 179.62403442 1063.86330299 179.63535725 1077.49937708 C179.64208763 1086.609867 179.63789181 1095.72030984 179.62484294 1104.83079279 C179.61771273 1110.02005878 179.61525382 1115.20920806 179.62606089 1120.39847035 C179.63580751 1125.1268264 179.631555 1129.85496306 179.61651891 1134.58330337 C179.61351767 1136.27581822 179.61544184 1137.96835157 179.62313672 1139.66085159 C179.78661775 1178.39231573 163.90557398 1212.63454125 137.796875 1240.7421875 C133.55980209 1244.97280146 128.98646253 1248.66801476 124.234375 1252.30078125 C123.37199219 1252.97882813 122.50960937 1253.656875 121.62109375 1254.35546875 C101.12975946 1269.95924035 73.12454406 1280.26241057 47.25537109 1280.4777832 C46.59557755 1280.4843544 45.935784 1280.4909256 45.2559967 1280.49769592 C43.08993362 1280.51726457 40.92393988 1280.52906445 38.7578125 1280.5390625 C38.00713123 1280.54313803 37.25644997 1280.54721355 36.48302078 1280.55141258 C32.49714696 1280.57221969 28.51130685 1280.58653551 24.52539062 1280.59594727 C21.27291754 1280.60474144 18.02088088 1280.62546496 14.76855469 1280.6574707 C-20.67266242 1280.99834227 -20.67266242 1280.99834227 -37.765625 1276.30078125 C-38.92239746 1275.98729736 -40.07916992 1275.67381348 -41.27099609 1275.35083008 C-44.10376086 1274.5059903 -46.86705629 1273.57159963 -49.640625 1272.55078125 C-50.59912354 1272.20499023 -51.55762207 1271.85919922 -52.54516602 1271.50292969 C-73.95281571 1263.56257236 -93.2026543 1249.9469034 -107.765625 1232.30078125 C-108.68601562 1231.22957031 -108.68601562 1231.22957031 -109.625 1230.13671875 C-128.45397865 1207.61726029 -141.88133709 1177.48738628 -141.8932755 1147.85412568 C-141.89575167 1146.77221143 -141.89575167 1146.77221143 -141.89827786 1145.66844034 C-141.90259095 1143.25209086 -141.89980528 1140.8358027 -141.89705276 1138.41945171 C-141.89870296 1136.6618546 -141.90078949 1134.90425786 -141.90327287 1133.14666173 C-141.90884211 1128.29913541 -141.90816662 1123.45162675 -141.90649528 1118.60409826 C-141.90576477 1113.33686549 -141.91078575 1108.06963773 -141.9150703 1102.80240709 C-141.92265505 1092.34741766 -141.9248436 1081.89243334 -141.92539935 1071.43744146 C-141.92631253 1058.91756475 -141.93297872 1046.39769279 -141.93974617 1033.87781812 C-141.95543222 1004.33351402 -141.96149538 974.78921121 -141.9661532 945.24490376 C-141.96853662 930.21184974 -141.97224015 915.17879616 -141.9761903 900.14574248 C-141.98885528 851.91958706 -141.99963873 803.69343166 -142.00303076 755.4672746 C-142.003193 753.16228505 -142.00335856 750.85729551 -142.00352514 748.55230597 C-142.00385894 743.92964196 -142.00418942 739.30697796 -142.0045197 734.68431395 C-142.0049066 729.27234114 -142.00529621 723.86036832 -142.00569077 718.44839551 C-142.00580318 716.89944698 -142.0059146 715.35049845 -142.00602502 713.80154992 C-142.00957376 664.06428552 -142.02464905 614.32703557 -142.04796276 564.58977669 C-142.06470823 528.85066785 -142.0801811 493.11156173 -142.08469772 457.37244892 C-142.08479121 456.63718666 -142.0848847 455.9019244 -142.08498101 455.14438146 C-142.08700024 439.0020491 -142.08815614 422.85971679 -142.0885096 406.71738431 C-142.08864577 400.9409778 -142.08885476 395.1645713 -142.08910285 389.38816479 C-142.08916441 387.95116068 -142.08922273 386.51415656 -142.0892778 385.07715244 C-142.09019699 362.19471019 -142.10015775 339.31228304 -142.11473529 316.42984576 C-142.12977138 292.73272263 -142.13393257 269.0356266 -142.12564233 245.3384985 C-142.12118543 231.68046841 -142.12504915 218.02250019 -142.14088084 204.36447823 C-142.15063141 195.23769336 -142.14945179 186.11095183 -142.13944461 176.98416736 C-142.1340532 171.78621599 -142.1333406 166.58838344 -142.14595333 161.39044192 C-142.1573527 156.65290523 -142.15470201 151.91558322 -142.14128625 147.1780537 C-142.13886943 145.48330792 -142.14137482 143.78854526 -142.14968273 142.09381811 C-142.2217956 126.33566302 -140.32849126 111.18879218 -135.140625 96.23828125 C-134.79435059 95.22588379 -134.44807617 94.21348633 -134.09130859 93.17041016 C-128.88883226 78.46614035 -121.35591847 65.55271343 -111.765625 53.30078125 C-111.31348633 52.71699707 -110.86134766 52.13321289 -110.39550781 51.53173828 C-88.48782004 23.5944816 -54.25184858 5.94283957 -19.45223999 0.72413635 C-12.97828913 -0.01930448 -6.50644586 -0.0072462 0 0 Z " fill="#972BEA" transform="translate(2221.765625,642.69921875)"/>
<path d="M0 0 C2.97 0 5.94 0 9 0 C9.13277344 0.78246094 9.26554687 1.56492187 9.40234375 2.37109375 C9.57894531 3.38300781 9.75554688 4.39492188 9.9375 5.4375 C10.11152344 6.44683594 10.28554687 7.45617187 10.46484375 8.49609375 C10.74751097 10.9287438 10.74751097 10.9287438 12 12 C12.27219283 13.40096516 12.49032664 14.81254689 12.68359375 16.2265625 C12.86825195 17.52787109 12.86825195 17.52787109 13.05664062 18.85546875 C13.30731114 20.67829333 13.55732871 22.50120785 13.80664062 24.32421875 C14.52362261 29.36909717 15.47142247 34.12282655 17 39 C17.54743267 40.87332465 18.08954855 42.74821564 18.625 44.625 C18.88539063 45.52476563 19.14578125 46.42453125 19.4140625 47.3515625 C19.99816716 49.99171556 20.10697891 52.30607664 20 55 C20.66 55 21.32 55 22 55 C22.17015625 55.76183594 22.3403125 56.52367187 22.515625 57.30859375 C23.89866235 63.20121566 25.5402956 68.49792744 28.1484375 73.953125 C29.40077153 76.96332239 29.72456976 79.76369467 30 83 C30.66 83 31.32 83 32 83 C32.33 85.31 32.66 87.62 33 90 C33.66 90 34.32 90 35 90 C35.23074219 90.53367187 35.46148438 91.06734375 35.69921875 91.6171875 C40.26117655 102.12159559 40.26117655 102.12159559 46 112 C46 112.99 46 113.98 46 115 C46.66 115 47.32 115 48 115 C48.350625 115.763125 48.70125 116.52625 49.0625 117.3125 C53.36313941 125.85404772 59.05858208 133.63225848 64.71118164 141.31640625 C66.57476576 143.87351015 67.99215025 145.97645076 69 149 C69.66 149 70.32 149 71 149 C72.12109375 150.328125 72.12109375 150.328125 73.4375 152.25 C76.6900171 156.76962674 80.37850601 160.76599131 84.21655273 164.78613281 C86.15601387 166.84627908 87.84184118 168.67222158 89.078125 171.234375 C90.30123901 173.57694929 91.62396245 173.92793886 94 175 C95.34635175 176.06262752 96.65821796 177.17001248 97.9375 178.3125 C98.58589844 178.88613281 99.23429687 179.45976562 99.90234375 180.05078125 C101.4442626 181.48358853 102.9424612 182.96381145 104.4140625 184.46875 C108.86665797 188.82718182 113.97102805 192.34087067 119 196 C119.86286621 196.63010986 119.86286621 196.63010986 120.74316406 197.27294922 C128.32742598 202.79850584 136.00100035 208.0858649 144 213 C145.13932292 213.71614583 146.27864583 214.43229167 147.41796875 215.1484375 C155.95487084 220.4523557 164.72215513 224.85812484 173.87133789 229.00170898 C176.1892355 230.08874687 178.45810207 231.25422051 180.734375 232.42578125 C186.48912225 235.32048348 192.42015571 237.64974423 198.4375 239.9375 C200.14558838 240.58936279 200.14558838 240.58936279 201.88818359 241.25439453 C221.83214203 248.78417061 242.04895164 253.99476544 262.84838867 258.52856445 C265.13476853 259.02952888 267.41895435 259.53984522 269.703125 260.05078125 C272.89905893 260.76213986 276.09855348 261.43654315 279.3125 262.0625 C282.23305342 262.63156113 285.11904398 263.25503883 288 264 C288 265.98 288 267.96 288 270 C283.67949868 271.58899897 279.69554725 272.38494132 275.125 272.875 C267.55328391 273.78085635 260.33483956 275.51886819 252.9765625 277.48095703 C249.84938065 278.30215128 246.70441498 279.04993105 243.5625 279.8125 C227.45125358 283.82451227 211.3090689 287.96563462 195.90673828 294.22753906 C193.87036756 295.05251691 191.82455631 295.85077387 189.77734375 296.6484375 C180.80020051 300.19319076 172.35457199 304.29421094 163.91601562 308.9753418 C161.7111715 310.15446142 159.47026316 311.24451057 157.22265625 312.33984375 C151.73990884 315.06331354 146.56332705 318.1947956 141.375 321.4375 C140.48554688 321.98470703 139.59609375 322.53191406 138.6796875 323.09570312 C133.23558363 326.47825295 128.05712256 330.06497251 123 334 C122.41557129 334.44738525 121.83114258 334.89477051 121.22900391 335.35571289 C112.73427859 341.87074548 104.25357744 348.48851966 96.8515625 356.25390625 C95 358 95 358 93 358 C92.67 358.99 92.34 359.98 92 361 C91.34 361 90.68 361 90 361 C89.73574219 361.59296875 89.47148437 362.1859375 89.19921875 362.796875 C87.95629575 365.08029054 86.69598354 366.47426723 84.8125 368.25 C75.54750558 377.28669887 66.60908325 387.74909559 59.9375 398.875 C59.298125 399.90625 58.65875 400.9375 58 402 C57.34 402 56.68 402 56 402 C55.773125 402.639375 55.54625 403.27875 55.3125 403.9375 C53.80951146 407.44447326 51.99986736 410.6945962 50.12109375 414.01171875 C49.38153971 415.32333202 48.67338987 416.65322027 48 418 C47.34 418 46.68 418 46 418 C45.896875 418.70125 45.79375 419.4025 45.6875 420.125 C44.90640997 423.39137647 43.57941257 426.0471852 42 429 C41.34 429 40.68 429 40 429 C39.87753906 429.71542969 39.75507813 430.43085938 39.62890625 431.16796875 C38.98864625 434.05112713 38.06448444 436.58592473 36.9375 439.3125 C36.57527344 440.19550781 36.21304688 441.07851563 35.83984375 441.98828125 C35.56269531 442.65214844 35.28554687 443.31601562 35 444 C34.34 444 33.68 444 33 444 C32.82210937 445.31871094 32.82210937 445.31871094 32.640625 446.6640625 C32.02113016 449.88996856 31.09959958 452.39392244 29.75 455.375 C27.32932179 460.98115041 25.45094038 466.63997518 23.70019531 472.47998047 C22.62194219 476.06907426 21.40086786 479.52677389 20 483 C18.90160691 486.6402242 17.96477822 490.32238005 17 494 C16.73960937 494.93070312 16.47921875 495.86140625 16.2109375 496.8203125 C13.96820711 505.13427263 12.92123037 513.45965257 12 522 C11.34 522 10.68 522 10 522 C10.01160156 522.61488281 10.02320312 523.22976563 10.03515625 523.86328125 C10.04869141 525.07564453 10.04869141 525.07564453 10.0625 526.3125 C10.07410156 527.11300781 10.08570312 527.91351562 10.09765625 528.73828125 C10 531 10 531 9 534 C6.03 534 3.06 534 0 534 C-1.97709172 526.06527189 -3.45790624 518.20771908 -4.52734375 510.1015625 C-4.90504053 507.62312248 -5.37485341 505.38158428 -6.125 503 C-7.04138088 499.85812268 -7.15875924 497.25456436 -7 494 C-7.66 494 -8.32 494 -9 494 C-9.66 490.7 -10.32 487.4 -11 484 C-11.33 484 -11.66 484 -12 484 C-12.19335938 483.11957031 -12.38671875 482.23914063 -12.5859375 481.33203125 C-12.84632813 480.17058594 -13.10671875 479.00914062 -13.375 477.8125 C-13.75785156 476.08966797 -13.75785156 476.08966797 -14.1484375 474.33203125 C-14.90121421 471.06277236 -14.90121421 471.06277236 -16.1015625 468.32421875 C-17 466 -17 466 -17 462 C-17.66 462 -18.32 462 -19 462 C-19.30292969 461.11699219 -19.60585937 460.23398437 -19.91796875 459.32421875 C-23.14718204 450.07376467 -26.81157521 441.21657969 -31.3125 432.5 C-33 429 -33 429 -33 426 C-33.66 426 -34.32 426 -35 426 C-35.56267578 424.83984375 -35.56267578 424.83984375 -36.13671875 423.65625 C-38.53844717 418.76809744 -40.92386313 413.95814093 -43.875 409.375 C-46 406 -46 406 -46 404 C-46.66 404 -47.32 404 -48 404 C-48.33 402.68 -48.66 401.36 -49 400 C-49.66 400 -50.32 400 -51 400 C-54.875 393.375 -54.875 393.375 -56 390 C-56.66 390 -57.32 390 -58 390 C-59.55078125 387.98828125 -59.55078125 387.98828125 -61.3125 385.3125 C-63.8894135 381.40369863 -66.64633762 378.26396562 -70 375 C-71.93946956 372.93753131 -73.84157049 370.84117459 -75.75 368.75 C-83.22487433 360.62807435 -90.76232715 353.01035134 -99.40234375 346.10546875 C-101.55470551 344.3609229 -103.59181097 342.5660393 -105.625 340.6875 C-120.11506613 327.91258456 -137.60130684 317.26250708 -155 309 C-156.64744292 308.16985325 -158.29332589 307.33660224 -159.9375 306.5 C-176.0613054 298.47642648 -192.55524478 291.7190634 -209.83935547 286.63574219 C-211.33456592 286.19579552 -212.82829571 285.75079679 -214.32080078 285.30175781 C-232.94795252 279.70202406 -251.88795685 274.94346886 -271.10253906 271.84887695 C-275.82493235 271.08753383 -275.82493235 271.08753383 -278 270 C-278 268.02 -278 266.04 -278 264 C-274.0105217 262.21344046 -270.24748623 261.43398561 -265.9375 260.75 C-257.67997599 259.37546847 -249.49831982 257.68575308 -241.3125 255.9375 C-240.0948999 255.68000977 -238.8772998 255.42251953 -237.62280273 255.15722656 C-235.8855896 254.78355957 -235.8855896 254.78355957 -234.11328125 254.40234375 C-232.56314331 254.06964478 -232.56314331 254.06964478 -230.98168945 253.73022461 C-227.91607227 252.97944585 -224.98310145 252.02793544 -222 251 C-220.34266166 250.4782334 -218.68382279 249.96120649 -217.0234375 249.44921875 C-203.6810182 245.30757947 -203.6810182 245.30757947 -190.69921875 240.16796875 C-187.75209211 238.89272871 -184.7647563 237.79278824 -181.75 236.6875 C-174.58340356 233.95411399 -167.84590868 230.53468061 -161.03515625 227.03076172 C-159.06740594 226.03413962 -157.08601017 225.07543026 -155.09375 224.12890625 C-139.44018658 216.64446654 -125.20979321 207.18632952 -111.47265625 196.62890625 C-108.6627969 194.4760749 -105.78975562 192.48030387 -102.8125 190.5625 C-99.44111885 188.38101808 -96.77060665 185.92452924 -94 183 C-92.33333333 181.66666667 -90.66666667 180.33333333 -89 179 C-87.31066078 177.3563186 -85.64740076 175.6857124 -84 174 C-83.32066406 173.33097656 -82.64132813 172.66195312 -81.94140625 171.97265625 C-81.21824219 171.25980469 -80.49507812 170.54695312 -79.75 169.8125 C-78.72132813 168.80123047 -78.72132813 168.80123047 -77.671875 167.76953125 C-75.92550889 166.09201005 -75.92550889 166.09201005 -75 164 C-74.34 164 -73.68 164 -73 164 C-72.7525 163.4328125 -72.505 162.865625 -72.25 162.28125 C-70.33198855 158.78087911 -67.58264565 156.12548724 -64.875 153.21875 C-63.1672356 151.19789547 -62.05223612 149.41137444 -61 147 C-60.34 147 -59.68 147 -59 147 C-58.64421875 146.23429687 -58.64421875 146.23429687 -58.28125 145.453125 C-56.53104667 142.10212593 -54.52831476 138.93827751 -52.5 135.75 C-51.89478516 134.77546875 -51.89478516 134.77546875 -51.27734375 133.78125 C-50.23975959 132.15124981 -49.12546338 130.57060934 -48 129 C-47.34 129 -46.68 129 -46 129 C-45.76539062 128.33484375 -45.53078125 127.6696875 -45.2890625 126.984375 C-43.64679034 123.18226611 -41.52907407 119.78010825 -39.375 116.25 C-34.29204241 107.76028131 -30.00528121 99.0405537 -26 90 C-25.7004541 89.32678711 -25.4009082 88.65357422 -25.09228516 87.95996094 C-21.48291025 80.17565659 -21.48291025 80.17565659 -19 72 C-18.34 72 -17.68 72 -17 72 C-16.896875 70.865625 -16.79375 69.73125 -16.6875 68.5625 C-16.19138145 64.50727012 -15.06094508 60.89409149 -13.69921875 57.0546875 C-12.90876682 54.73190696 -12.39052905 52.4212801 -12 50 C-11.34 50 -10.68 50 -10 50 C-9.67 46.37 -9.34 42.74 -9 39 C-8.34 39 -7.68 39 -7 39 C-6.95101562 38.21496094 -6.90203125 37.42992187 -6.8515625 36.62109375 C-6.77679687 35.57050781 -6.70203125 34.51992188 -6.625 33.4375 C-6.55539062 32.40496094 -6.48578125 31.37242188 -6.4140625 30.30859375 C-5.96394477 26.71189828 -5.01054266 23.47910073 -4 20 C-3.40770334 17.09497419 -2.91990384 14.17505184 -2.4375 11.25 C-1.125 3.375 -1.125 3.375 0 0 Z " fill="#8237F0" transform="translate(2236,12)"/>
</svg>
